<?xml version="1.0" standalone="no"?>
<!DOCTYPE svg PUBLIC "-//W3C//DTD SVG 20010904//EN"
 "http://www.w3.org/TR/2001/REC-SVG-20010904/DTD/svg10.dtd">
<svg version="1.0" xmlns="http://www.w3.org/2000/svg"
 width="50px" height="50px" viewBox="0 0 200.000000 200.000000"
 preserveAspectRatio="xMidYMid meet">

<g transform="translate(0.000000,200.000000) scale(0.100000,-0.100000)"
fill="#000000" stroke="none">
<path d="M840 1795 c-151 -33 -298 -113 -411 -226 l-61 -61 123 -73 123 -72
53 43 c30 24 72 53 94 65 57 28 182 59 243 59 119 0 253 -53 344 -135 l51 -46
-15 53 c-31 104 -56 160 -104 231 -52 78 -106 127 -173 157 -51 24 -169 25
-267 5z"/>
<path d="M1296 1748 c5 -7 24 -33 43 -58 102 -134 191 -426 191 -632 l0 -38
-72 -1 -73 0 140 -135 c76 -73 141 -134 145 -134 3 1 68 61 145 135 l140 134
-71 1 -71 0 -7 66 c-8 75 -47 206 -84 279 -77 153 -215 292 -369 369 -59 29
-67 31 -57 14z"/>
<path d="M185 1155 l-140 -134 71 -1 71 0 6 -84 c14 -199 130 -418 299 -563
71 -61 213 -134 305 -157 200 -51 424 -19 612 87 71 40 241 191 241 214 0 5
-55 39 -122 75 l-123 65 -48 -43 c-69 -62 -143 -101 -233 -124 -92 -24 -157
-25 -243 -5 -144 34 -278 141 -345 272 -37 75 -66 173 -66 231 l0 32 73 0 72
1 -139 134 c-77 74 -142 135 -145 135 -3 0 -69 -61 -146 -135z"/>
</g>
</svg>
